<svg width="322" height="279" viewBox="0 0 322 279" fill="none" xmlns="http://www.w3.org/2000/svg">
<path opacity="0.28" d="M160.887 278.698C249.743 278.698 321.775 266.453 321.775 251.349C321.775 236.244 249.743 224 160.887 224C72.0317 224 0 236.244 0 251.349C0 266.453 72.0317 278.698 160.887 278.698Z" fill="url(#paint0_linear)" fill-opacity="0.6"/>
<path d="M182.798 238.128C178.998 238.128 175.917 235.047 175.917 231.246C175.917 227.446 178.998 224.365 182.798 224.365C186.599 224.365 189.68 227.446 189.68 231.246C189.68 235.047 186.599 238.128 182.798 238.128Z" fill="url(#paint1_linear)"/>
<path d="M110.888 238.128C107.087 238.128 104.006 235.047 104.006 231.246C104.006 227.446 107.087 224.365 110.888 224.365C114.688 224.365 117.769 227.446 117.769 231.246C117.769 235.047 114.688 238.128 110.888 238.128Z" fill="url(#paint2_linear)"/>
<path d="M146.839 238.128C143.039 238.128 139.958 235.047 139.958 231.246C139.958 227.446 143.039 224.365 146.839 224.365C150.64 224.365 153.721 227.446 153.721 231.246C153.721 235.047 150.64 238.128 146.839 238.128Z" fill="url(#paint3_linear)"/>
<path d="M142.022 166.905H151.656V189.958H142.022V166.905Z" fill="url(#paint4_linear)"/>
<path d="M105.534 219.692C105.531 220.35 105.657 221.001 105.907 221.609C106.156 222.218 106.523 222.771 106.986 223.237C107.45 223.703 108.001 224.073 108.608 224.326C109.215 224.578 109.866 224.708 110.523 224.709H182.98C185.733 224.709 187.082 222.517 187.109 219.744C187.109 218.368 187.591 217.098 186.679 216.193C186.217 215.729 185.667 215.36 185.062 215.109C184.457 214.859 183.808 214.73 183.152 214.731H154.595V187.487C154.595 186.999 154.498 186.514 154.311 186.063C154.124 185.611 153.85 185.201 153.504 184.855C153.159 184.509 152.748 184.235 152.297 184.048C151.845 183.861 151.361 183.765 150.872 183.765H142.834C142.345 183.764 141.861 183.86 141.409 184.047C140.957 184.234 140.547 184.508 140.201 184.854C139.855 185.2 139.581 185.61 139.394 186.062C139.207 186.514 139.111 186.998 139.112 187.487V214.714H110.695C107.925 214.731 105.565 216.923 105.534 219.692Z" fill="url(#paint5_linear)"/>
<path d="M157.681 75.3829C157.681 75.3829 167.659 96.7152 172.82 100.156L155.789 108.586C155.789 108.586 141.338 89.3177 139.274 81.4041C137.209 73.4905 154.069 70.0498 154.069 70.0498L157.681 75.3829Z" fill="#DBE9FB"/>
<path d="M157.681 75.3829C157.681 75.3829 167.659 96.7152 172.82 100.156L155.789 108.586C155.789 108.586 141.338 89.3177 139.274 81.4041C137.209 73.4905 154.069 70.0498 154.069 70.0498L157.681 75.3829Z" fill="#FFD9D4"/>
<path d="M141.011 43.1714C141.011 43.1714 150.645 50.3968 159.591 74.4817L144.108 79.9868L141.011 43.1714Z" fill="url(#paint6_linear)"/>
<path d="M141.011 42.8274C141.011 42.8274 139.79 59.556 140.822 62.3086C140.822 62.3086 124.152 51.085 121.055 38.6986C121.055 38.6986 126.216 38.6986 128.969 30.4409C131.721 22.1832 133.098 12.5493 133.098 12.5493L145.828 16.6781L141.011 42.8274Z" fill="#FFD9D4"/>
<path d="M164.225 15.4014C164.225 15.4014 161.786 25.9712 162.687 29.8798C162.716 29.9967 162.717 30.1184 162.692 30.236C162.667 30.3536 162.616 30.4639 162.542 30.5589C162.468 30.6538 162.374 30.7309 162.266 30.7843C162.158 30.8377 162.04 30.8661 161.92 30.8673C161.121 30.9036 160.325 30.7577 159.59 30.4407C159.256 30.9996 159.093 31.6445 159.123 32.2952C159.246 33.1932 141.011 31.4729 141.011 31.4729L146.516 9.1084L164.225 15.4014Z" fill="#FFD9D4"/>
<path d="M150.301 12.8932C150.301 12.8932 161.311 19.4305 166.816 13.5813C172.321 7.73212 163.031 -2.24589 154.429 1.53887C145.828 5.32363 142.731 5.32363 138.258 3.25922C133.785 1.1948 128.28 4.60109 128.28 11.8609C128.28 12.5491 129.312 18.3983 126.904 20.8067C124.495 23.2152 124.151 28.3763 126.904 30.7847C129.656 33.1932 134.473 28.3763 133.097 22.8712C131.721 17.3661 137.226 12.5491 141.355 17.3661C145.484 22.183 135.85 29.4085 135.85 33.8814C135.85 38.3543 136.194 40.7627 140.667 43.8594C145.14 46.956 159.246 47.3001 161.311 36.978C163.375 26.6559 142.731 36.2898 145.828 24.5915C148.924 12.8932 148.236 12.5491 150.301 12.8932Z" fill="url(#paint7_linear)"/>
<path d="M185 228.193V222H193.258V228.881L185 228.193Z" fill="#FFD9D4"/>
<path d="M205.317 228.151C217.704 228.151 217.016 238.818 217.016 238.818C217.016 238.642 194.627 238.759 187.305 238.818C187.005 238.819 186.708 238.761 186.43 238.647C186.153 238.533 185.901 238.366 185.688 238.154C185.475 237.942 185.307 237.691 185.192 237.414C185.076 237.137 185.017 236.84 185.017 236.54V228.151H205.317Z" fill="#FFD9D4"/>
<path d="M216.651 235.721C216.918 236.731 217.041 237.773 217.015 238.818C217.015 238.642 194.627 238.759 187.305 238.818C187.005 238.819 186.708 238.761 186.43 238.647C186.153 238.533 185.9 238.366 185.688 238.154C185.475 237.942 185.306 237.691 185.191 237.414C185.076 237.137 185.017 236.84 185.017 236.54V228.151H205.317V235.721H216.651ZM189.834 233.656C190.174 233.656 190.507 233.556 190.79 233.367C191.073 233.178 191.293 232.909 191.423 232.594C191.553 232.28 191.588 231.934 191.521 231.6C191.455 231.267 191.291 230.96 191.05 230.72C190.81 230.479 190.503 230.315 190.169 230.249C189.836 230.182 189.49 230.217 189.176 230.347C188.861 230.477 188.592 230.697 188.403 230.98C188.214 231.263 188.114 231.596 188.114 231.936C188.114 232.392 188.295 232.83 188.617 233.153C188.94 233.475 189.378 233.656 189.834 233.656Z" fill="url(#paint8_linear)"/>
<path d="M176.388 221.892C176.388 221.892 173.98 230.494 177.765 232.558H164.518C164.518 232.558 167.271 223.096 166.926 220L176.388 221.892Z" fill="#FFD9D4"/>
<path d="M184.302 232.214C196.688 232.214 196 242.88 196 242.88C196 242.705 173.611 242.822 166.29 242.88C165.99 242.881 165.692 242.823 165.415 242.71C165.137 242.596 164.885 242.428 164.672 242.217C164.46 242.005 164.291 241.753 164.176 241.476C164.061 241.199 164.002 240.902 164.002 240.602V232.214H184.302Z" fill="#FFD9D4"/>
<path d="M195.634 239.783C195.901 240.793 196.024 241.836 195.999 242.88C195.999 242.705 173.61 242.822 166.288 242.88C165.988 242.881 165.691 242.823 165.414 242.71C165.136 242.596 164.884 242.428 164.671 242.217C164.458 242.005 164.29 241.753 164.175 241.476C164.06 241.199 164 240.902 164 240.602V232.214H184.3V239.783H195.634ZM168.817 237.719C169.158 237.719 169.49 237.618 169.773 237.429C170.056 237.24 170.276 236.971 170.407 236.657C170.537 236.343 170.571 235.997 170.505 235.663C170.438 235.329 170.274 235.023 170.034 234.782C169.793 234.542 169.487 234.378 169.153 234.311C168.819 234.245 168.473 234.279 168.159 234.409C167.845 234.539 167.576 234.76 167.387 235.043C167.198 235.326 167.097 235.658 167.097 235.999C167.097 236.455 167.278 236.892 167.601 237.215C167.923 237.538 168.361 237.719 168.817 237.719Z" fill="url(#paint9_linear)"/>
<path d="M101.346 129.533C103.242 129.694 104.935 129.787 106.446 129.818L109.604 160.155L138.506 159.122L116.977 128.548C118.629 127.86 118.894 127.124 118.894 127.124L107.024 67.084C101.518 67.4281 84.5002 67.2962 84.5002 84.4997C84.5002 101.703 85.1752 128.156 101.346 129.533Z" fill="url(#paint10_linear)"/>
<path d="M181.28 82.1997C181.28 82.1997 181.98 102.2 190.94 108.71L210.94 108.01C210.94 108.01 200.75 91.4997 204.09 81.0097C207.43 70.5197 181.28 82.1997 181.28 82.1997Z" fill="#0D69B5"/>
<path d="M129.096 119C129.096 119 126.283 155.58 151.036 158.761C175.788 161.942 196.603 160.988 196.603 160.988L183.321 223.972H195.5C195.5 223.972 209 196 216 165.5C226.672 119 129.096 119 129.096 119Z" fill="url(#paint11_radial)"/>
<path d="M109.096 119C109.096 119 106.283 155.58 131.036 158.761C155.788 161.942 176.603 160.988 176.603 160.988L165 225L177.5 224.972C177.5 224.972 189 196 196 165.5C206.672 119 109.096 119 109.096 119Z" fill="#4EECD4"/>
<path opacity="0.5" d="M131.036 158.761C106.283 155.58 109.096 119 109.096 119C109.096 119 117.492 119.858 123.441 120.167C119.503 128.437 108.556 160.132 175.171 156.255C175.171 156.255 183.047 154.982 181.359 165.479C180.172 172.862 172.738 208.847 169 225H165L176.591 160.994C176.591 160.994 155.788 161.942 131.036 158.761Z" fill="url(#paint12_radial)"/>
<path d="M138.757 58.5235C128.803 51.5424 121.653 38.6019 121.653 38.6019C107.805 38.5056 99.5332 57.4913 99.5332 57.4913L119.678 72.073L104 84.9996C103.434 86.5446 102.96 88.0758 102.572 89.5911C96.9264 111.614 109.263 130.267 115.5 139C129.5 132 157.333 126.833 170 126C170 126 146.671 102.564 149.767 88.1135C157.994 49.7119 140.821 43.7286 140.821 43.7286C139.652 48.5811 138.961 53.5363 138.757 58.5235Z" fill="url(#paint13_linear)"/>
<path d="M173 163L107.615 163.079" stroke="url(#paint14_linear)" stroke-width="8.25766" stroke-linecap="round" stroke-linejoin="round"/>
<path d="M119.678 72.0729L99.5331 57.4912C99.5331 57.4912 75.1041 108.644 111.593 118.35C143.935 126.952 146.688 115.598 173.869 118.35C173.869 118.35 184.535 119.382 171.461 111.125C160.918 104.467 157.354 114.909 143.591 113.189C132.144 111.758 116.712 110.148 114.001 90.4805C112.625 80.5025 119.678 72.0729 119.678 72.0729Z" fill="#FFD9D4"/>
<path opacity="0.1" d="M91.644 86.916C91.7025 86.0352 91.7816 85.1544 91.878 84.2804C91.9261 83.8435 91.9812 83.4065 92.0362 82.973C92.2083 81.6678 92.4136 80.3798 92.6521 79.1091C92.8483 78.0528 93.065 77.0137 93.2955 76.0124C93.3437 75.8094 93.3884 75.6064 93.4366 75.4034C93.5329 75.0009 93.6293 74.6018 93.7291 74.2061C93.9252 73.4147 94.1282 72.6371 94.3381 71.8802C94.4447 71.5017 94.5514 71.1267 94.6581 70.7585C94.7097 70.5762 94.7647 70.3904 94.8198 70.2114C94.978 69.6644 95.1432 69.1311 95.3049 68.6115C95.6352 67.5678 95.9621 66.5815 96.2855 65.6525C96.3933 65.3429 96.5 65.0401 96.6055 64.7442L96.9186 63.8806C97.0218 63.6019 97.125 63.3301 97.2248 63.0651C97.4244 62.5353 97.6159 62.0375 97.7994 61.5719L98.0678 60.8837C98.9348 58.7402 99.5335 57.4912 99.5335 57.4912L107.296 63.1099C99.5817 68.8765 97.2902 78.3693 96.4369 87.7693C95.7935 94.833 98.3293 107.209 110.716 113.746C135.103 126.618 148.364 112.446 177.417 117.93C176.509 118.46 174.737 118.405 174.1 118.367H173.98H173.911H173.88C146.699 115.615 143.946 126.969 111.603 118.367C107.327 117.228 103.886 115.522 101.147 113.396C100.965 113.254 100.786 113.11 100.607 112.965C99.9144 112.395 99.2561 111.783 98.6355 111.135C98.4807 110.977 98.3327 110.815 98.1848 110.653C97.6038 110.01 97.0604 109.333 96.5573 108.627C94.9582 106.356 93.7456 103.837 92.9687 101.171C92.7863 100.558 92.6246 99.9356 92.4732 99.3094C92.3218 98.6832 92.2014 98.0466 92.0913 97.4101C91.9089 96.3435 91.7747 95.2666 91.6819 94.1759C91.6268 93.5221 91.5855 92.8684 91.5614 92.2078C91.5442 91.7708 91.5339 91.3304 91.5305 90.89C91.5305 90.6698 91.5305 90.4496 91.5305 90.2259C91.5305 89.1284 91.5718 88.0205 91.644 86.916Z" fill="#4A4BD6"/>
<path d="M158.5 119L128.02 121.913L158.463 121.837L158.5 119Z" fill="#539EF2"/>
<path d="M128.019 121.913L128.008 123.352C128.003 123.908 128.454 124.362 129.011 124.36L158.462 124.261V121.837L128.019 121.913Z" fill="#4764EF"/>
<path d="M211 122.5L147 122V123.862L209.463 123.998C209.799 123.999 210.112 123.832 210.298 123.553L211 122.5Z" fill="#4764EF"/>
<path d="M226.386 75.2819L211.588 121.697C211.476 122.051 211.254 122.36 210.954 122.579C210.654 122.798 210.292 122.916 209.921 122.916H148.752C148.482 122.916 148.216 122.854 147.974 122.734C147.732 122.614 147.358 122.226 147.358 122.226C147.194 122.011 147.082 121.762 147.031 121.497C146.98 121.232 146.991 120.958 147.063 120.698L159.846 74.2836C159.947 73.9144 160.167 73.5888 160.472 73.3568C160.776 73.1248 161.148 72.9993 161.531 72.9995H224.719C224.994 72.9996 225.265 73.0646 225.511 73.1894C225.757 73.3141 225.969 73.495 226.132 73.7174C226.294 73.9398 226.402 74.1974 226.446 74.4692C226.49 74.7411 226.47 75.0195 226.386 75.2819Z" fill="url(#paint15_linear)"/>
<path d="M146 123.5L147.5 119L153 123L146 123.5Z" fill="#4764EF"/>
<path d="M88.1431 126.796L116.9 258.578C116.948 258.782 117.064 258.964 117.229 259.093C117.394 259.222 117.598 259.292 117.808 259.29H119.443C119.575 259.289 119.706 259.26 119.826 259.204C119.946 259.148 120.053 259.068 120.139 258.967C120.225 258.867 120.288 258.749 120.325 258.622C120.361 258.495 120.37 258.361 120.351 258.23L98.995 126.796H88.1431Z" fill="#B1BFE1"/>
<path d="M119.218 127L90.4609 258.782C90.4128 258.986 90.2967 259.167 90.1317 259.297C89.9666 259.426 89.7625 259.495 89.5528 259.493H87.9182C87.7859 259.492 87.6553 259.463 87.5352 259.408C87.4151 259.352 87.3084 259.271 87.2223 259.171C87.1361 259.07 87.0726 258.952 87.036 258.825C86.9994 258.698 86.9906 258.565 87.0101 258.434L108.366 127H119.218Z" fill="#D0DBED"/>
<path d="M239.704 126.796L268.461 258.578C268.509 258.782 268.625 258.964 268.79 259.093C268.955 259.222 269.159 259.292 269.369 259.29H271.004C271.136 259.289 271.267 259.26 271.387 259.204C271.507 259.148 271.614 259.068 271.7 258.967C271.786 258.867 271.849 258.749 271.886 258.622C271.923 258.495 271.931 258.361 271.912 258.23L250.556 126.796H239.704Z" fill="#B1BFE1"/>
<path d="M271.897 126.796L243.14 258.578C243.092 258.782 242.975 258.964 242.81 259.093C242.645 259.222 242.441 259.292 242.232 259.29H240.612C240.478 259.291 240.346 259.263 240.224 259.209C240.102 259.154 239.994 259.074 239.906 258.973C239.818 258.872 239.753 258.754 239.716 258.625C239.678 258.497 239.669 258.362 239.689 258.23L261.045 126.796H271.897Z" fill="#D0DBED"/>
<path d="M285 124H108V129H285V124Z" fill="#D0DBED"/>
<path d="M108 124H72V129H108V124Z" fill="#B1BFE1"/>
<path d="M238.107 117.26C236.781 117.257 235.487 116.862 234.386 116.123C233.285 115.384 232.428 114.336 231.923 113.111C231.418 111.885 231.287 110.538 231.548 109.238C231.808 107.939 232.448 106.745 233.386 105.809C234.324 104.873 235.519 104.236 236.819 103.978C238.12 103.721 239.467 103.855 240.691 104.362C241.916 104.87 242.962 105.73 243.698 106.832C244.434 107.934 244.827 109.23 244.827 110.555C244.823 112.335 244.113 114.041 242.853 115.297C241.593 116.554 239.886 117.26 238.107 117.26ZM238.107 105.969C237.209 105.969 236.331 106.236 235.584 106.735C234.837 107.234 234.255 107.943 233.912 108.772C233.568 109.602 233.478 110.515 233.653 111.396C233.829 112.277 234.261 113.086 234.896 113.721C235.531 114.356 236.34 114.788 237.221 114.963C238.102 115.139 239.015 115.049 239.844 114.705C240.674 114.361 241.383 113.779 241.882 113.033C242.381 112.286 242.647 111.408 242.647 110.51C242.643 109.308 242.163 108.157 241.312 107.309C240.461 106.461 239.308 105.985 238.107 105.985V105.969Z" fill="#00B4A7"/>
<path d="M239.454 96.4951V114.748C239.456 116.612 239.883 118.451 240.704 120.125C241.525 121.799 242.718 123.262 244.191 124.404H259.16C260.633 123.262 261.826 121.799 262.647 120.125C263.468 118.451 263.896 116.612 263.897 114.748V96.4951H239.454Z" fill="#00CDBF"/>
<path d="M248.127 110.661L249.549 111.1C249.398 111.798 249.014 112.422 248.46 112.871C247.901 113.27 247.223 113.468 246.537 113.431C246.098 113.445 245.66 113.367 245.253 113.2C244.846 113.033 244.479 112.781 244.176 112.463C243.529 111.719 243.198 110.752 243.253 109.768C243.189 108.746 243.519 107.739 244.176 106.953C244.503 106.62 244.898 106.361 245.335 106.194C245.771 106.027 246.238 105.955 246.704 105.985C247.361 105.924 248.018 106.104 248.552 106.491C249.086 106.878 249.462 107.445 249.61 108.089L248.096 108.437C248.031 108.086 247.843 107.77 247.567 107.544C247.282 107.322 246.928 107.209 246.568 107.226C246.322 107.22 246.077 107.268 245.852 107.367C245.627 107.467 245.427 107.615 245.266 107.801C244.887 108.35 244.71 109.013 244.767 109.678C244.705 110.366 244.881 111.055 245.266 111.63C245.424 111.816 245.622 111.964 245.844 112.063C246.067 112.163 246.309 112.211 246.553 112.205C246.919 112.209 247.273 112.08 247.551 111.842C247.858 111.515 248.058 111.104 248.127 110.661Z" fill="white"/>
<path d="M252.38 112.281V110.404H250.488V109.102H252.38V107.226H253.636V109.102H255.543V110.404H253.636V112.281H252.38Z" fill="white"/>
<path d="M258.283 112.281V110.404H256.391V109.102H258.283V107.226H259.539V109.102H261.446V110.404H259.539V112.281H258.283Z" fill="white"/>
<path opacity="0.23" d="M251.547 87.3079C251.547 87.3079 259.009 84.856 253.924 78.8624C248.838 72.8689 227.846 69.1154 231.508 55.6753C235.171 42.2352 272.525 28.5681 261.779 6.5918C261.779 6.5918 278.745 24.5724 269.347 38.3757C263.731 46.7001 243.374 52.8904 251.033 61.7142C260.326 72.2181 267.258 88.4279 251.547 87.3079Z" fill="#B4B4F4"/>
<defs>
<linearGradient id="paint0_linear" x1="-505.5" y1="395.5" x2="311" y2="195.5" gradientUnits="userSpaceOnUse">
<stop stop-color="#5254D8"/>
<stop offset="1" stop-color="#E2E7FD"/>
</linearGradient>
<linearGradient id="paint1_linear" x1="183.265" y1="230.341" x2="174.711" y2="233.253" gradientUnits="userSpaceOnUse">
<stop stop-color="#18186E"/>
<stop offset="1" stop-color="#5A5BDA"/>
</linearGradient>
<linearGradient id="paint2_linear" x1="111.355" y1="230.341" x2="102.8" y2="233.253" gradientUnits="userSpaceOnUse">
<stop stop-color="#18186E"/>
<stop offset="1" stop-color="#5A5BDA"/>
</linearGradient>
<linearGradient id="paint3_linear" x1="147.306" y1="230.341" x2="138.752" y2="233.253" gradientUnits="userSpaceOnUse">
<stop stop-color="#18186E"/>
<stop offset="1" stop-color="#5A5BDA"/>
</linearGradient>
<linearGradient id="paint4_linear" x1="152" y1="175" x2="140.954" y2="177.183" gradientUnits="userSpaceOnUse">
<stop stop-color="#18186E"/>
<stop offset="1" stop-color="#5A5BDA"/>
</linearGradient>
<linearGradient id="paint5_linear" x1="163.5" y1="192.5" x2="129.262" y2="233.111" gradientUnits="userSpaceOnUse">
<stop stop-color="#1D1E91"/>
<stop offset="1" stop-color="#5A5BDA"/>
</linearGradient>
<linearGradient id="paint6_linear" x1="159.591" y1="61.5791" x2="141.011" y2="61.5791" gradientUnits="userSpaceOnUse">
<stop stop-color="#4A4BD6"/>
<stop offset="1" stop-color="#B7C7F1"/>
</linearGradient>
<linearGradient id="paint7_linear" x1="168.467" y1="23.2324" x2="124.963" y2="23.2324" gradientUnits="userSpaceOnUse">
<stop stop-color="#2728AC"/>
<stop offset="1" stop-color="#5A5BDA"/>
</linearGradient>
<linearGradient id="paint8_linear" x1="217.019" y1="233.484" x2="185.017" y2="233.484" gradientUnits="userSpaceOnUse">
<stop stop-color="#5A5BDA"/>
<stop offset="1" stop-color="#2728AC"/>
</linearGradient>
<linearGradient id="paint9_linear" x1="-3144.33" y1="7564.46" x2="-6120.8" y2="7564.46" gradientUnits="userSpaceOnUse">
<stop stop-color="#5A5BDA"/>
<stop offset="1" stop-color="#2728AC"/>
</linearGradient>
<linearGradient id="paint10_linear" x1="112" y1="83.9997" x2="71.0002" y2="97.9997" gradientUnits="userSpaceOnUse">
<stop stop-color="#18186E"/>
<stop offset="1" stop-color="#5A5BDA"/>
</linearGradient>
<radialGradient id="paint11_radial" cx="0" cy="0" r="1" gradientUnits="userSpaceOnUse" gradientTransform="translate(174.627 167.925) rotate(180) scale(44.375 50.5152)">
<stop stop-color="#12A891"/>
<stop offset="1" stop-color="#20E7C9"/>
</radialGradient>
<radialGradient id="paint12_radial" cx="0" cy="0" r="1" gradientUnits="userSpaceOnUse" gradientTransform="translate(-19613.3 48052.5) rotate(180) scale(10336.3 14000.1)">
<stop stop-color="#12A891"/>
<stop offset="1" stop-color="#20E7C9"/>
</radialGradient>
<linearGradient id="paint13_linear" x1="166.998" y1="90.8008" x2="97" y2="90.8008" gradientUnits="userSpaceOnUse">
<stop stop-color="#8890E3"/>
<stop offset="1" stop-color="#4A4BD6"/>
</linearGradient>
<linearGradient id="paint14_linear" x1="181.012" y1="162.49" x2="107.615" y2="162.579" gradientUnits="userSpaceOnUse">
<stop stop-color="#1B1C74"/>
<stop offset="1" stop-color="#3D3EAB"/>
</linearGradient>
<linearGradient id="paint15_linear" x1="153" y1="121.5" x2="220" y2="70.5" gradientUnits="userSpaceOnUse">
<stop stop-color="#4663EE"/>
<stop offset="1" stop-color="#56ADF3"/>
</linearGradient>
</defs>
</svg>
